<svg width="883" height="1061" viewBox="0 0 883 1061" fill="none" xmlns="http://www.w3.org/2000/svg">
<path d="M0 4.99998C0 2.23856 2.23858 0 5 0H227.38C229.143 0 230.776 0.928941 231.677 2.44471L660.858 724.282C674.118 746.585 678.381 773.103 672.777 798.438L611.367 1076.08C610.861 1078.37 608.83 1080 606.485 1080H5.00002C2.23859 1080 0 1077.76 0 1075V4.99998Z" fill="#1E1E1E"/>
<path d="M717.538 732.066C701.48 703.965 721.771 669 754.137 669V669C768.671 669 782.179 676.487 789.882 688.812L866.541 811.465C876.691 827.706 879.406 847.514 874 865.887L820.222 1048.66C814.754 1067.24 797.699 1080 778.329 1080V1080C750.427 1080 729.682 1054.19 735.682 1026.94L771.947 862.223C775.521 845.99 772.933 829.008 764.686 814.576L717.538 732.066Z" fill="#1E1E1E"/>
</svg>
